<svg width="215" height="44" viewBox="0 0 215 44" fill="none" xmlns="http://www.w3.org/2000/svg">
<g clip-path="url(#clip0_1603_467)">
<path d="M213.653 33.1192V38.4055H209.218C204.486 38.2568 201.958 35.7015 201.958 30.9019V18.8286H198.862V14.1912H201.958V8.99951H208.501V14.1371H213.504V18.761H208.501V30.253C208.501 31.8078 208.812 33.0516 211.205 33.0516L213.653 33.1192Z" fill="white"/>
<path d="M172.782 26.345V25.9935C172.711 24.4385 172.948 22.8849 173.479 21.4215C174.009 19.9582 174.824 18.6141 175.875 17.4661C176.926 16.3181 178.194 15.3889 179.605 14.7317C181.016 14.0745 182.543 13.7022 184.098 13.6362C184.409 13.6362 184.733 13.6362 185.044 13.6362C191.223 13.6362 196.645 17.2326 196.645 25.8042V27.6294H179.474C179.65 31.5773 181.786 33.8081 185.382 33.8081C188.478 33.8081 189.925 32.4561 190.344 30.4822H196.523C195.766 35.6333 191.656 38.4995 185.153 38.4995C178.014 38.4455 172.782 33.9298 172.782 26.345ZM190.209 23.4923C189.979 19.896 188.167 18.1654 185.017 18.1654C181.867 18.1654 180.055 20.1123 179.609 23.4923H190.209Z" fill="white"/>
<path d="M146.066 26.345V25.9935C145.995 24.4407 146.231 22.8892 146.76 21.4276C147.289 19.9659 148.101 18.6229 149.15 17.4753C150.198 16.3277 151.462 15.3979 152.87 14.7392C154.278 14.0805 155.802 13.7057 157.355 13.6362C157.666 13.6362 157.991 13.6362 158.302 13.6362C164.48 13.6362 169.915 17.2326 169.915 25.8042V27.6294H152.758C152.934 31.5773 155.07 33.8081 158.667 33.8081C161.763 33.8081 163.209 32.4561 163.628 30.4822H169.807C169.036 35.6333 164.926 38.4995 158.423 38.4995C151.298 38.4455 146.066 33.9298 146.066 26.345ZM163.493 23.4923C163.263 19.896 161.452 18.1654 158.302 18.1654C155.151 18.1654 153.394 20.1664 152.894 23.4788L163.493 23.4923Z" fill="white"/>
<path d="M108.575 14.1367H115.497L119.729 30.1715L124.366 14.1367H129.774L133.966 30.1715L138.427 14.1367H144.768L137.251 37.959H130.761L126.705 23.0058L122.365 37.959H115.795L108.575 14.1367Z" fill="white"/>
<path d="M86.5782 30.4685H92.7568C93.0408 32.6182 94.1088 33.8485 96.948 33.8485C99.4898 33.8485 100.666 32.8886 100.666 31.2527C100.666 29.6168 99.314 28.9272 95.8529 28.4405C89.512 27.4806 87.0649 25.6554 87.0649 21.0045C87.0649 16.0427 91.6076 13.582 96.5289 13.582C101.815 13.582 105.804 15.5019 106.371 20.9775H100.274C100.235 20.5542 100.113 20.1428 99.9138 19.767C99.715 19.3913 99.4437 19.0587 99.1156 18.7884C98.7875 18.5181 98.4091 18.3156 98.0022 18.1924C97.5954 18.0692 97.1682 18.0278 96.7452 18.0707H96.5424C94.4063 18.0707 93.1624 19.0712 93.1624 20.5313C93.1624 21.9915 94.3116 22.6269 97.7998 23.1272C103.722 24.0195 107.034 25.5202 107.034 30.6172C107.034 35.7143 103.289 38.4453 97.0156 38.4453C90.7423 38.4453 86.7539 35.6197 86.5782 30.4685Z" fill="white"/>
<path d="M60.3223 14.1368H66.866V17.9089C67.6036 16.5243 68.7231 15.3807 70.0916 14.6137C71.4601 13.8468 73.02 13.4889 74.5859 13.5825C79.2233 13.5825 82.5898 16.4082 82.5898 22.8572V38.0131H76.1272V23.8036C76.1272 20.5723 74.8699 19.031 71.9495 19.031C71.3323 18.9773 70.7105 19.046 70.1199 19.2332C69.5293 19.4204 68.9815 19.7224 68.5079 20.1219C68.0343 20.5213 67.6442 21.0104 67.3602 21.561C67.0761 22.1116 66.9036 22.7129 66.8525 23.3304C66.8187 23.6178 66.8187 23.9082 66.8525 24.1957V37.9591H60.3223V14.1368Z" fill="white"/>
<path d="M47.6942 8.14675C47.6705 7.49432 47.8409 6.84952 48.1838 6.29399C48.5268 5.73846 49.0269 5.29718 49.6208 5.02602C50.2146 4.75487 50.8756 4.66602 51.52 4.77074C52.1644 4.87546 52.7633 5.16903 53.2408 5.61429C53.7182 6.05955 54.0528 6.63647 54.2022 7.27201C54.3516 7.90754 54.3091 8.57312 54.08 9.18447C53.8509 9.79582 53.4456 10.3255 52.9153 10.7063C52.3851 11.0872 51.7537 11.3021 51.1012 11.324H50.9796C50.5746 11.3496 50.1685 11.295 49.7847 11.1633C49.4009 11.0317 49.0468 10.8255 48.7428 10.5567C48.4388 10.2879 48.1909 9.96175 48.0133 9.5969C47.8357 9.23206 47.7318 8.83574 47.7077 8.43067C47.6965 8.33647 47.692 8.24159 47.6942 8.14675ZM47.6942 14.1361H54.3055V37.9584H47.7212L47.6942 14.1361Z" fill="white"/>
<path d="M22.7772 5.40283H43.6792V11.1759H30.1591V19.7881H40.867V25.3449H30.1456V37.959H22.7772V5.40283Z" fill="white"/>
<path d="M10.1629 16.0563C10.1629 18.0979 10.1629 20.5855 7.35074 21.5995C10.2305 22.5865 10.1629 24.6821 10.1629 26.8724V34.9844C10.1629 36.5256 10.7848 37.4585 11.8935 37.6884C12.1371 37.7706 12.3937 37.8072 12.6506 37.7965H15.3546V43.2045H10.893C6.13394 43.2045 3.51106 40.5005 3.51106 35.4846V25.8854C3.47731 25.3926 3.26001 24.9303 2.90208 24.5899C2.54414 24.2495 2.07158 24.0557 1.5777 24.0467H0.414978V19.3011H1.5777C2.08144 19.2945 2.56328 19.0942 2.92326 18.7417C3.28324 18.3893 3.49373 17.9118 3.51106 17.4083V7.67393C3.51106 2.73913 6.07986 0.0756836 10.893 0.0756836H15.3952V5.40257H12.6911C12.434 5.40331 12.1785 5.44437 11.934 5.52425C10.8254 5.80817 10.2035 6.72753 10.2035 8.22825L10.1629 16.0563Z" fill="white"/>
</g>
<defs>
<clipPath id="clip0_1603_467">
<rect width="213.616" height="43.264" fill="white" transform="translate(0.414978 0.0756836)"/>
</clipPath>
</defs>
</svg>
