<svg width="227" height="46" viewBox="0 0 227 46" fill="none" xmlns="http://www.w3.org/2000/svg">
<g clip-path="url(#clip0_1603_333)">
<path d="M226.577 35.1257V40.7324H221.873C216.855 40.5747 214.173 37.8645 214.173 32.774V19.9689H210.889V15.0505H214.173V9.54419H221.113V14.9932H226.419V19.8972H221.113V32.0857C221.113 33.7348 221.443 35.054 223.981 35.054L226.577 35.1257Z" fill="#FFD0A0"/>
<path d="M183.228 27.9417V27.5689C183.153 25.9196 183.404 24.2718 183.967 22.7198C184.53 21.1678 185.394 19.7422 186.509 18.5246C187.624 17.3071 188.968 16.3215 190.465 15.6245C191.961 14.9275 193.581 14.5326 195.23 14.4626C195.56 14.4626 195.904 14.4626 196.234 14.4626C202.787 14.4626 208.537 18.2769 208.537 27.3681V29.3039H190.326C190.513 33.491 192.778 35.857 196.593 35.857C199.876 35.857 201.411 34.4231 201.855 32.3295H208.408C207.605 37.7929 203.246 40.8328 196.349 40.8328C188.778 40.7755 183.228 35.9861 183.228 27.9417ZM201.712 24.9161C201.468 21.1018 199.546 19.2663 196.205 19.2663C192.864 19.2663 190.943 21.3312 190.47 24.9161H201.712Z" fill="#FFD0A0"/>
<path d="M154.894 27.9417V27.5689C154.819 25.9219 155.069 24.2764 155.63 22.7262C156.191 21.176 157.052 19.7516 158.164 18.5344C159.276 17.3172 160.617 16.3311 162.11 15.6325C163.604 14.9338 165.22 14.5363 166.867 14.4626C167.197 14.4626 167.541 14.4626 167.871 14.4626C174.424 14.4626 180.188 18.2769 180.188 27.3681V29.3039H161.992C162.178 33.491 164.444 35.857 168.258 35.857C171.542 35.857 173.076 34.4231 173.521 32.3295H180.074C179.256 37.7929 174.897 40.8328 168 40.8328C160.443 40.7755 154.894 35.9861 154.894 27.9417ZM173.377 24.9161C173.133 21.1018 171.212 19.2663 167.871 19.2663C164.53 19.2663 162.666 21.3886 162.135 24.9017L173.377 24.9161Z" fill="#FFD0A0"/>
<path d="M115.13 14.9932H122.472L126.96 31.9997L131.879 14.9932H137.614L142.06 31.9997L146.792 14.9932H153.517L145.544 40.2592H138.661L134.359 24.3998L129.756 40.2592H122.787L115.13 14.9932Z" fill="#FFD0A0"/>
<path d="M91.8007 32.3149H98.3538C98.6549 34.5949 99.7877 35.8998 102.799 35.8998C105.495 35.8998 106.742 34.8817 106.742 33.1466C106.742 31.4116 105.308 30.6803 101.638 30.164C94.9123 29.1459 92.3169 27.2101 92.3169 22.2774C92.3169 17.0148 97.1349 14.405 102.354 14.405C107.961 14.405 112.191 16.4412 112.794 22.2487H106.326C106.285 21.7997 106.155 21.3634 105.945 20.9649C105.734 20.5664 105.446 20.2136 105.098 19.927C104.75 19.6403 104.349 19.4254 103.917 19.2948C103.486 19.1641 103.032 19.1202 102.584 19.1657H102.369C100.103 19.1657 98.7839 20.2268 98.7839 21.7755C98.7839 23.3241 100.003 23.9981 103.702 24.5286C109.983 25.475 113.496 27.0667 113.496 32.4727C113.496 37.8786 109.524 40.7752 102.871 40.7752C96.2172 40.7752 91.9871 37.7783 91.8007 32.3149Z" fill="#FFD0A0"/>
<path d="M63.9528 14.9933H70.893V18.994C71.6753 17.5255 72.8627 16.3125 74.3141 15.4991C75.7655 14.6857 77.42 14.3061 79.0808 14.4054C83.9992 14.4054 87.5698 17.4023 87.5698 24.2422V40.3167H80.7155V25.246C80.7155 21.8189 79.382 20.1842 76.2846 20.1842C75.63 20.1272 74.9705 20.2 74.3441 20.3986C73.7177 20.5971 73.1367 20.9174 72.6344 21.3411C72.1321 21.7648 71.7184 22.2835 71.4171 22.8675C71.1158 23.4515 70.9329 24.0892 70.8787 24.7441C70.8428 25.0489 70.8428 25.357 70.8787 25.6618V40.2593H63.9528V14.9933Z" fill="#FFD0A0"/>
<path d="M50.5604 8.64032C50.5352 7.94835 50.7159 7.26447 51.0797 6.67527C51.4434 6.08607 51.9738 5.61805 52.6037 5.33046C53.2336 5.04287 53.9346 4.94864 54.6181 5.05971C55.3015 5.17077 55.9367 5.48214 56.4431 5.95438C56.9495 6.42662 57.3044 7.03851 57.4628 7.71256C57.6213 8.38662 57.5762 9.09253 57.3332 9.74094C57.0902 10.3893 56.6603 10.9511 56.0979 11.355C55.5355 11.7589 54.8659 11.9869 54.1739 12.0101H54.0448C53.6153 12.0373 53.1846 11.9794 52.7776 11.8397C52.3705 11.7001 51.9949 11.4815 51.6725 11.1964C51.3501 10.9113 51.0872 10.5653 50.8988 10.1784C50.7104 9.79141 50.6003 9.37107 50.5747 8.94145C50.5628 8.84154 50.558 8.74091 50.5604 8.64032ZM50.5604 14.9927H57.5723V40.2587H50.589L50.5604 14.9927Z" fill="#FFD0A0"/>
<path d="M24.1332 5.72974H46.3019V11.8527H31.9625V20.9869H43.3193V26.8804H31.9482V40.259H24.1332V5.72974Z" fill="#FFD0A0"/>
<path d="M10.7541 17.0293C10.7541 19.1945 10.7541 21.833 7.77146 22.9084C10.8258 23.9552 10.7541 26.1778 10.7541 28.5008V37.1044C10.7541 38.7391 11.4137 39.7285 12.5895 39.9723C12.8479 40.0595 13.1201 40.0984 13.3925 40.087H16.2604V45.8228H11.5284C6.48091 45.8228 3.69907 42.9549 3.69907 37.635V27.454C3.66327 26.9313 3.43281 26.4411 3.05318 26.08C2.67355 25.719 2.17235 25.5134 1.64853 25.5038H0.415344V20.4707H1.64853C2.1828 20.4637 2.69384 20.2512 3.07564 19.8774C3.45744 19.5036 3.68069 18.9972 3.69907 18.4632V8.13882C3.69907 2.90494 6.42356 0.0800781 11.5284 0.0800781H16.3034V5.7298H13.4355C13.1628 5.73059 12.8918 5.77414 12.6325 5.85886C11.4567 6.15999 10.7971 7.13507 10.7971 8.72674L10.7541 17.0293Z" fill="#FFD0A0"/>
</g>
<defs>
<clipPath id="clip0_1603_333">
<rect width="226.563" height="45.8861" fill="white" transform="translate(0.415344 0.0800781)"/>
</clipPath>
</defs>
</svg>
