<svg width="34" height="25" viewBox="0 0 34 25" fill="none" xmlns="http://www.w3.org/2000/svg">
<path d="M16.7174 8.53125C14.4522 8.53125 12.6094 10.3741 12.6094 12.6392C12.6094 14.9044 14.4523 16.7472 16.7174 16.7472C18.9825 16.7472 20.8254 14.9044 20.8254 12.6392C20.8254 10.3741 18.9825 8.53125 16.7174 8.53125ZM16.7174 14.7972C15.5274 14.7972 14.5594 13.8291 14.5594 12.6392C14.5594 11.4494 15.5275 10.4812 16.7174 10.4812C17.9073 10.4812 18.8754 11.4494 18.8754 12.6392C18.8754 13.8291 17.9073 14.7972 16.7174 14.7972Z" fill="#161722"/>
<path d="M9.2877 5.20941L7.90886 3.83057C5.55254 6.18688 4.25488 9.3152 4.25488 12.6392C4.25488 15.9632 5.55254 19.0915 7.90892 21.4478L9.28777 20.069C7.29968 18.081 6.20488 15.4424 6.20488 12.6392C6.20488 9.83611 7.29968 7.19744 9.2877 5.20941Z" fill="#161722"/>
<path d="M6.33489 2.25695L4.95611 0.878174C1.80985 4.02437 0.0771484 8.2012 0.0771484 12.6392C0.0771484 17.0772 1.80985 21.254 4.95611 24.4002L6.33496 23.0214C3.55705 20.2435 2.02715 16.5564 2.02715 12.6392C2.02715 8.72205 3.55705 5.03492 6.33489 2.25695Z" fill="#161722"/>
<path d="M28.4785 0.878174L27.0996 2.25702C29.8775 5.03492 31.4074 8.72205 31.4074 12.6392C31.4074 16.5564 29.8775 20.2435 27.0997 23.0215L28.4785 24.4003C31.6247 21.254 33.3574 17.0772 33.3574 12.6392C33.3574 8.2012 31.6247 4.02437 28.4785 0.878174Z" fill="#161722"/>
<path d="M25.5264 3.83057L24.1475 5.20941C26.1356 7.19744 27.2304 9.83611 27.2304 12.6392C27.2304 15.4424 26.1355 18.081 24.1475 20.069L25.5263 21.4478C27.8826 19.0915 29.1804 15.9632 29.1804 12.6392C29.1804 9.3152 27.8827 6.18688 25.5264 3.83057Z" fill="#161722"/>
<path d="M22.5732 6.78271L21.1944 8.16156C22.3925 9.35971 23.0524 10.9498 23.0524 12.6389C23.0524 14.328 22.3925 15.9181 21.1943 17.1162L22.5732 18.4951C24.1397 16.9286 25.0024 14.8488 25.0024 12.6389C25.0024 10.4289 24.1397 8.34915 22.5732 6.78271Z" fill="#161722"/>
<path d="M12.2397 8.16156L10.8608 6.78271C9.29432 8.34915 8.43164 10.4289 8.43164 12.6389C8.43164 14.8488 9.29432 16.9286 10.8608 18.4951L12.2397 17.1162C11.0415 15.918 10.3816 14.328 10.3816 12.6389C10.3816 10.9498 11.0415 9.35971 12.2397 8.16156Z" fill="#161722"/>
</svg>
