<svg width="32" height="31" viewBox="0 0 32 31" fill="none" xmlns="http://www.w3.org/2000/svg">
<path d="M30.3191 8.19946C29.7073 8.21672 29.1064 8.36542 28.5571 8.63548C27.3719 9.2281 26.7191 10.3518 26.7191 11.7995V15.3412L25.5645 16.4958C25.3365 14.9887 24.0548 14.1179 23.9985 14.0804C23.86 13.9881 23.6938 13.9466 23.5282 13.963C23.3626 13.9794 23.2077 14.0527 23.09 14.1704L17.33 19.9304C17.195 20.0654 17.1191 20.2485 17.1191 20.4395V30.0395C17.1191 30.2304 17.195 30.4136 17.33 30.5486C17.465 30.6836 17.6482 30.7595 17.8391 30.7595C18.0301 30.7595 18.2132 30.6836 18.3483 30.5486C18.4833 30.4136 18.5591 30.2304 18.5591 30.0395V20.7377L23.6243 15.6725C23.8579 15.9395 24.1082 16.3293 24.1523 16.8043C24.2144 17.4747 23.8571 18.2034 23.0903 18.9703L20.2103 21.8503C20.0771 21.9857 20.0028 22.1683 20.0036 22.3582C20.0044 22.5481 20.0802 22.7301 20.2145 22.8644C20.3488 22.9987 20.5307 23.0745 20.7207 23.0753C20.9106 23.076 21.0931 23.0017 21.2285 22.8685L24.1085 19.9885L27.9485 16.1485C28.0834 16.0135 28.1592 15.8304 28.1591 15.6395V11.7995C28.1591 10.9034 28.488 10.2958 29.1646 9.9421C29.3037 9.87001 29.4492 9.81088 29.5991 9.76546V17.2985L24.966 22.8582C24.8581 22.9877 24.7991 23.1509 24.7991 23.3195V30.0395C24.7991 30.2304 24.875 30.4136 25.01 30.5486C25.1451 30.6836 25.3282 30.7595 25.5191 30.7595C25.7101 30.7595 25.8932 30.6836 26.0283 30.5486C26.1633 30.4136 26.2391 30.2304 26.2391 30.0395V23.5802L30.8723 18.0204C30.9801 17.891 31.0391 17.7279 31.0391 17.5595V8.91946C31.0391 8.72851 30.9633 8.54537 30.8283 8.41035C30.6932 8.27532 30.5101 8.19946 30.3191 8.19946Z" fill="#161722"/>
<path d="M8.74793 14.1704C8.63024 14.0527 8.47541 13.9794 8.30979 13.963C8.14416 13.9466 7.97796 13.9881 7.83947 14.0804C7.78319 14.1179 6.50147 14.9887 6.27347 16.4958L5.11883 15.3412V11.7995C5.11883 10.3518 4.46609 9.2281 3.28085 8.63548C2.73159 8.36542 2.13065 8.21672 1.51883 8.19946C1.32787 8.19946 1.14474 8.27532 1.00971 8.41035C0.874685 8.54537 0.798828 8.72851 0.798828 8.91946V17.5595C0.798825 17.7279 0.857869 17.891 0.965688 18.0204L5.59883 23.5802V30.0395C5.59883 30.2304 5.67469 30.4136 5.80971 30.5486C5.94474 30.6836 6.12787 30.7595 6.31883 30.7595C6.50978 30.7595 6.69292 30.6836 6.82795 30.5486C6.96297 30.4136 7.03883 30.2304 7.03883 30.0395V23.3195C7.03883 23.151 6.97979 22.9879 6.87197 22.8585L2.23883 17.2988V9.766C2.37564 9.80732 2.50876 9.85998 2.63681 9.92344C3.33797 10.274 3.67883 10.8875 3.67883 11.7995V15.6395C3.67884 15.8304 3.7547 16.0135 3.88973 16.1486L7.72973 19.9886L10.6097 22.8686C10.7451 23.0018 10.9277 23.0761 11.1176 23.0753C11.3076 23.0745 11.4895 22.9987 11.6238 22.8644C11.7581 22.7301 11.8339 22.5482 11.8347 22.3582C11.8355 22.1683 11.7611 21.9858 11.6279 21.8504L8.74793 18.9704C7.98107 18.2034 7.62371 17.4747 7.68593 16.8044C7.72991 16.329 7.98053 15.9391 8.21393 15.6724L13.2788 20.7377V30.0395C13.2788 30.2304 13.3547 30.4136 13.4897 30.5486C13.6247 30.6836 13.8079 30.7595 13.9988 30.7595C14.1898 30.7595 14.3729 30.6836 14.5079 30.5486C14.643 30.4136 14.7188 30.2304 14.7188 30.0395V20.4395C14.7188 20.2485 14.643 20.0654 14.5079 19.9304L8.74793 14.1704Z" fill="#161722"/>
<path d="M12.0794 6.75929H13.7594V13.7193C13.7594 13.9102 13.8352 14.0934 13.9703 14.2284C14.1053 14.3634 14.2884 14.4393 14.4794 14.4393H17.3594C17.5503 14.4393 17.7335 14.3634 17.8685 14.2284C18.0035 14.0934 18.0794 13.9102 18.0794 13.7193V6.75929H19.7594C19.9503 6.75929 20.1335 6.68343 20.2685 6.5484C20.4035 6.41338 20.4794 6.23024 20.4794 6.03929V4.11929C20.4794 3.92833 20.4035 3.7452 20.2685 3.61017C20.1335 3.47514 19.9503 3.39929 19.7594 3.39929H18.0794V1.23929C18.0794 1.04833 18.0035 0.865196 17.8685 0.73017C17.7335 0.595144 17.5503 0.519287 17.3594 0.519287H14.4794C14.2884 0.519287 14.1053 0.595144 13.9703 0.73017C13.8352 0.865196 13.7594 1.04833 13.7594 1.23929V3.39929H12.0794C11.8884 3.39929 11.7053 3.47514 11.5703 3.61017C11.4352 3.7452 11.3594 3.92833 11.3594 4.11929V6.03929C11.3594 6.23024 11.4352 6.41338 11.5703 6.5484C11.7053 6.68343 11.8884 6.75929 12.0794 6.75929ZM12.7994 4.83929H14.4794C14.6703 4.83929 14.8535 4.76343 14.9885 4.6284C15.1235 4.49338 15.1994 4.31024 15.1994 4.11929V1.95929H16.6394V4.11929C16.6394 4.31024 16.7152 4.49338 16.8503 4.6284C16.9853 4.76343 17.1684 4.83929 17.3594 4.83929H19.0394V5.31929H17.3594C17.1684 5.31929 16.9853 5.39514 16.8503 5.53017C16.7152 5.6652 16.6394 5.84833 16.6394 6.03929V12.9993H15.1994V6.03929C15.1994 5.84833 15.1235 5.6652 14.9885 5.53017C14.8535 5.39514 14.6703 5.31929 14.4794 5.31929H12.7994V4.83929Z" fill="#161722"/>
<path d="M22.8789 5.07938C22.8789 5.27033 22.9548 5.45347 23.0898 5.58849C23.2248 5.72352 23.408 5.79938 23.5989 5.79938H24.5589C24.7499 5.79938 24.933 5.72352 25.068 5.58849C25.203 5.45347 25.2789 5.27033 25.2789 5.07938C25.2789 4.88842 25.203 4.70528 25.068 4.57026C24.933 4.43523 24.7499 4.35938 24.5589 4.35938H23.5989C23.408 4.35938 23.2248 4.43523 23.0898 4.57026C22.9548 4.70528 22.8789 4.88842 22.8789 5.07938Z" fill="#161722"/>
<path d="M22.6988 2.43948C22.8251 2.43956 22.9492 2.40628 23.0585 2.343L23.8898 1.863C23.9724 1.81607 24.0448 1.75327 24.103 1.67823C24.1612 1.60318 24.2039 1.51737 24.2288 1.42574C24.2537 1.3341 24.2602 1.23845 24.248 1.14429C24.2357 1.05012 24.205 0.959314 24.1575 0.877082C24.11 0.79485 24.0468 0.722822 23.9713 0.665144C23.8959 0.607466 23.8098 0.565277 23.718 0.541007C23.6262 0.516736 23.5305 0.510864 23.4364 0.523727C23.3424 0.53659 23.2518 0.567936 23.1698 0.615958L22.3385 1.09596C22.2012 1.17523 22.0939 1.29758 22.0333 1.44405C21.9726 1.59051 21.962 1.75289 22.0031 1.906C22.0442 2.05911 22.1346 2.19439 22.2604 2.29085C22.3862 2.3873 22.5403 2.43955 22.6988 2.43948Z" fill="#161722"/>
<path d="M22.3387 9.06295L23.1701 9.54295C23.3354 9.63692 23.5311 9.6617 23.7146 9.61189C23.8981 9.56207 24.0544 9.4417 24.1495 9.27705C24.2446 9.11239 24.2706 8.91682 24.2221 8.73301C24.1735 8.54919 24.0541 8.39207 23.8901 8.29591L23.0587 7.81591C22.9768 7.76789 22.8862 7.73654 22.7921 7.72368C22.6981 7.71082 22.6024 7.71669 22.5106 7.74096C22.4188 7.76523 22.3327 7.80742 22.2573 7.86509C22.1818 7.92277 22.1186 7.9948 22.0711 8.07703C22.0236 8.15926 21.9929 8.25008 21.9806 8.34424C21.9684 8.4384 21.9749 8.53405 21.9998 8.62569C22.0246 8.71732 22.0674 8.80313 22.1256 8.87818C22.1838 8.95322 22.2562 9.01602 22.3387 9.06295Z" fill="#161722"/>
<path d="M7.27859 5.79938H8.23859C8.42955 5.79938 8.61268 5.72352 8.74771 5.58849C8.88274 5.45347 8.95859 5.27033 8.95859 5.07938C8.95859 4.88842 8.88274 4.70528 8.74771 4.57026C8.61268 4.43523 8.42955 4.35938 8.23859 4.35938H7.27859C7.08764 4.35938 6.9045 4.43523 6.76948 4.57026C6.63445 4.70528 6.55859 4.88842 6.55859 5.07938C6.55859 5.27033 6.63445 5.45347 6.76948 5.58849C6.9045 5.72352 7.08764 5.79938 7.27859 5.79938Z" fill="#161722"/>
<path d="M7.94766 1.86286L8.77902 2.34286C8.86094 2.39088 8.95154 2.42223 9.04562 2.43509C9.1397 2.44796 9.23539 2.44208 9.32719 2.41781C9.41899 2.39354 9.50508 2.35135 9.58051 2.29368C9.65594 2.236 9.71921 2.16397 9.76669 2.08174C9.81417 1.99951 9.84491 1.9087 9.85715 1.81453C9.86939 1.72037 9.86288 1.62472 9.838 1.53308C9.81312 1.44145 9.77037 1.35564 9.71219 1.28059C9.65401 1.20555 9.58157 1.14275 9.49902 1.09582L8.66766 0.615822C8.50238 0.52185 8.30664 0.497068 8.12315 0.546883C7.93967 0.596699 7.78333 0.717067 7.68826 0.881722C7.5932 1.04638 7.56712 1.24195 7.61572 1.42576C7.66431 1.60958 7.78364 1.76671 7.94766 1.86286Z" fill="#161722"/>
<path d="M8.78046 7.81591L7.9491 8.29591C7.86655 8.34284 7.79411 8.40564 7.73593 8.48068C7.67775 8.55572 7.63499 8.64153 7.61011 8.73317C7.58524 8.82481 7.57873 8.92046 7.59097 9.01462C7.60321 9.10878 7.63395 9.19959 7.68143 9.28183C7.7289 9.36406 7.79218 9.43609 7.86761 9.49376C7.94304 9.55144 8.02913 9.59363 8.12093 9.6179C8.21273 9.64217 8.30842 9.64804 8.4025 9.63518C8.49658 9.62232 8.58718 9.59097 8.6691 9.54295L9.50046 9.06295C9.583 9.01602 9.65545 8.95322 9.71362 8.87818C9.7718 8.80313 9.81456 8.71732 9.83944 8.62569C9.86432 8.53405 9.87083 8.4384 9.85859 8.34424C9.84635 8.25008 9.8156 8.15927 9.76813 8.07703C9.72065 7.9948 9.65737 7.92277 9.58195 7.8651C9.50652 7.80742 9.42043 7.76523 9.32863 7.74096C9.23683 7.71669 9.14113 7.71082 9.04705 7.72368C8.95298 7.73654 8.86237 7.76789 8.78046 7.81591Z" fill="#161722"/>
</svg>
