<svg width="29" height="29" viewBox="0 0 29 29" fill="none" xmlns="http://www.w3.org/2000/svg">
<g clip-path="url(#clip0_68_1569)">
<path d="M22.9179 0.55957C20.573 0.55957 19.1647 2.06379 18.3963 3.32518C17.628 2.06384 16.2197 0.55957 13.8748 0.55957C10.7646 0.55957 8.52832 3.14616 8.52832 6.29275C8.52832 9.70811 11.1781 11.9204 15.189 15.2692C17.6278 17.3053 17.8316 17.5114 18.3963 17.9942C19.0095 17.4857 19.1947 17.2231 21.9665 15.0912C24.9184 12.8209 28.3194 10.038 28.3194 6.29275C28.3194 3.184 26.0612 0.55957 22.9179 0.55957ZM20.9606 13.7834C20.1787 14.3848 19.3096 15.0532 18.3993 15.8163C17.6472 15.1722 16.9373 14.5795 16.2465 14.0027C12.4624 10.8433 10.1783 8.93626 10.1783 6.29275C10.1783 3.96493 11.7675 2.20953 13.8748 2.20953C16.1573 2.20953 17.1893 4.3717 17.5271 5.30134L17.7245 5.83945H19.0682L19.2656 5.30134C19.6033 4.37175 20.6353 2.20953 22.9178 2.20953C25.0566 2.20953 26.6694 3.96493 26.6694 6.29275C26.6694 9.3889 23.3863 11.9176 20.9606 13.7834Z" fill="#161722"/>
<path d="M15.1358 28.605C15.5902 28.6807 16.0542 28.7191 16.5148 28.7191C18.4991 28.7191 20.4252 28.0125 21.9388 26.7295L27.3984 22.1606C28.475 21.2888 28.6307 19.707 27.743 18.6419C26.8761 17.6018 25.3639 17.4432 24.3 18.2806L20.7602 21.1648C20.5205 21.3643 20.26 21.5348 19.9847 21.6741C20.0038 21.5502 20.0138 21.4235 20.0138 21.2943C20.0138 19.9297 18.9035 18.8194 17.5388 18.8194H12.9307C12.3632 18.2861 10.9739 17.1694 9.28902 17.1694C7.60106 17.1694 6.17505 18.293 5.5996 18.8194H0.15918V27.0692H5.86618L15.1358 28.605ZM3.4591 25.4192H1.80914V20.4693H3.4591V25.4192ZM5.10906 20.4693H6.29374C7.0822 19.6418 8.14329 18.8193 9.28897 18.8193C10.4292 18.8193 11.4505 19.6278 12.2202 20.4693H17.5388C17.9937 20.4693 18.3638 20.8394 18.3638 21.2943C18.3638 21.7492 17.9937 22.1193 17.5388 22.1193H13.4139V23.7692H18.1213C19.4667 23.7692 20.7773 23.2957 21.812 22.4359L25.3251 19.5734C25.6817 19.2965 26.1859 19.3508 26.4754 19.6982C26.7739 20.0562 26.7207 20.5883 26.3575 20.8804L20.8738 25.4692C19.6577 26.5009 18.1095 27.0691 16.5148 27.0691C16.1447 27.0691 15.772 27.0383 15.4062 26.9774L6.00191 25.4192H5.10906V20.4693Z" fill="#161722"/>
</g>
<defs>
<clipPath id="clip0_68_1569">
<rect width="28.16" height="28.16" fill="white" transform="translate(0.15918 0.559326)"/>
</clipPath>
</defs>
</svg>
